<?xml version="1.0" standalone="no"?><!DOCTYPE svg PUBLIC "-//W3C//DTD SVG 1.1//EN" "http://www.w3.org/Graphics/SVG/1.1/DTD/svg11.dtd"><svg t="1726022138588" class="icon" viewBox="0 0 1024 1024" version="1.1" xmlns="http://www.w3.org/2000/svg" p-id="1481" xmlns:xlink="http://www.w3.org/1999/xlink" width="16" height="16"><path d="M661.333333 320h-170.666666c-12.8 0-21.333333-8.533333-21.333334-21.333333s8.533333-21.333333 21.333334-21.333334h170.666666c12.8 0 21.333333 8.533333 21.333334 21.333334s-8.533333 21.333333-21.333334 21.333333z" fill="#333333" p-id="1482"></path><path d="M874.666667 917.333333H149.333333c-12.8 0-21.333333-8.533333-21.333333-21.333333V128c0-12.8 8.533333-21.333333 21.333333-21.333333h533.333334c6.4 0 10.666667 2.133333 14.933333 6.4l192 192c4.266667 4.266667 6.4 8.533333 6.4 14.933333v576c0 12.8-8.533333 21.333333-21.333333 21.333333zM170.666667 874.666667h682.666666V328.533333L674.133333 149.333333H170.666667v725.333334z" fill="#333333" p-id="1483"></path><path d="M746.666667 917.333333H277.333333c-12.8 0-21.333333-8.533333-21.333333-21.333333V554.666667c0-12.8 8.533333-21.333333 21.333333-21.333334h469.333334c12.8 0 21.333333 8.533333 21.333333 21.333334v341.333333c0 12.8-8.533333 21.333333-21.333333 21.333333z m-448-42.666666h426.666666V576H298.666667v298.666667z" fill="#333333" p-id="1484"></path></svg>